<svg xmlns="http://www.w3.org/2000/svg" viewBox="0 0 279.84 47.46"><defs><style>.cls-1{fill:#231f20;}.cls-2{fill:#e40b7b;}.cls-3{fill:none;}</style></defs><title>Gossamer - wordmark1 - B</title><g id="Layer_2" data-name="Layer 2"><g id="Layer_1-2" data-name="Layer 1"><path class="cls-1" d="M74.74,10.39A15.76,15.76,0,0,1,80.49,16a14.82,14.82,0,0,1,0,15.31,15.86,15.86,0,0,1-5.75,5.61,15.88,15.88,0,0,1-15.75,0,15.86,15.86,0,0,1-5.75-5.61,14.84,14.84,0,0,1,0-15.32,16,16,0,0,1,21.5-5.59Zm-15.29.77A15.11,15.11,0,0,0,54,16.43a13.56,13.56,0,0,0-2,7.21,13.72,13.72,0,0,0,2,7.24,15,15,0,0,0,25.71,0,13.72,13.72,0,0,0,2-7.24,13.56,13.56,0,0,0-2-7.21,15.11,15.11,0,0,0-5.44-5.27,15,15,0,0,0-14.83,0Z"/><path d="M66.88,39.41a16,16,0,0,1-8.09-2.14,16.29,16.29,0,0,1-5.9-5.76,15.24,15.24,0,0,1,0-15.74,16.38,16.38,0,0,1,22-5.74h0a16.11,16.11,0,0,1,5.9,5.75,15.22,15.22,0,0,1,0,15.73,16.29,16.29,0,0,1-5.9,5.76A15.94,15.94,0,0,1,66.88,39.41Zm0-30.68A15.51,15.51,0,0,0,53.59,16.2a14.42,14.42,0,0,0,0,14.89,15.57,15.57,0,0,0,5.61,5.47,15.49,15.49,0,0,0,15.33,0,15.57,15.57,0,0,0,5.61-5.47,14.41,14.41,0,0,0,0-14.88,15.3,15.3,0,0,0-5.61-5.46h0A15.16,15.16,0,0,0,66.88,8.73Zm0,29.81A15.45,15.45,0,0,1,53.66,31.1a14.25,14.25,0,0,1-2.09-7.46,14.06,14.06,0,0,1,2.09-7.42,15.43,15.43,0,0,1,5.59-5.41,15.36,15.36,0,0,1,15.23,0,15.43,15.43,0,0,1,5.59,5.41,14.06,14.06,0,0,1,2.09,7.42,14.25,14.25,0,0,1-2.09,7.46,15.4,15.4,0,0,1-5.59,5.43A15.15,15.15,0,0,1,66.88,38.54Zm0-28.93a14.25,14.25,0,0,0-7.22,1.91h0a14.65,14.65,0,0,0-5.3,5.13,13.23,13.23,0,0,0-2,7,13.41,13.41,0,0,0,2,7,14.54,14.54,0,0,0,5.3,5.15,14.68,14.68,0,0,0,14.41,0,14.54,14.54,0,0,0,5.3-5.15,13.41,13.41,0,0,0,2-7,13.23,13.23,0,0,0-2-7,14.73,14.73,0,0,0-5.3-5.13A14.2,14.2,0,0,0,66.88,9.61Z"/><path class="cls-1" d="M103.53,8.94a14,14,0,0,1,3.78,1.63l-.43.71a12.62,12.62,0,0,0-3.58-1.52,16,16,0,0,0-4.15-.56,11.47,11.47,0,0,0-6.46,1.63,5,5,0,0,0-2.43,4.31,5.79,5.79,0,0,0,1.18,3.78,7.55,7.55,0,0,0,2.91,2.2,47.46,47.46,0,0,0,4.71,1.69,39.85,39.85,0,0,1,5,1.77,8.49,8.49,0,0,1,3.19,2.51,6.91,6.91,0,0,1,1.3,4.37A6.48,6.48,0,0,1,105.77,37a12.67,12.67,0,0,1-7.59,2,15.07,15.07,0,0,1-5.72-1.16,14.12,14.12,0,0,1-4.75-3.14l.62-.6A12.56,12.56,0,0,0,92.75,37a14.19,14.19,0,0,0,5.43,1.09,11.85,11.85,0,0,0,6.95-1.82,5.65,5.65,0,0,0,2.59-4.84,6,6,0,0,0-1.21-3.89,8,8,0,0,0-3-2.24,47,47,0,0,0-4.78-1.69,42.08,42.08,0,0,1-5-1.8,8.17,8.17,0,0,1-3.12-2.45,6.68,6.68,0,0,1-1.27-4.25,5.75,5.75,0,0,1,2.68-4.94,12.12,12.12,0,0,1,7.09-1.88A16.36,16.36,0,0,1,103.53,8.94Z"/><path d="M98.18,39.41a15.39,15.39,0,0,1-5.87-1.19A14.6,14.6,0,0,1,87.41,35l-.29-.29,1.22-1.18.29.3a12.14,12.14,0,0,0,4.28,2.84,13.74,13.74,0,0,0,5.27,1.06A11.53,11.53,0,0,0,104.89,36a5.22,5.22,0,0,0,2.42-4.51,5.56,5.56,0,0,0-1.12-3.63,7.59,7.59,0,0,0-2.82-2.12A42.45,42.45,0,0,0,98.64,24a45.54,45.54,0,0,1-5-1.82,8.71,8.71,0,0,1-3.27-2.58A7.09,7.09,0,0,1,89,15.14a6.19,6.19,0,0,1,2.85-5.28,12.61,12.61,0,0,1,7.33-1.95,16.79,16.79,0,0,1,4.49.64,14.21,14.21,0,0,1,3.89,1.68l.34.21L107,11.85l-.35-.22a12.19,12.19,0,0,0-3.46-1.47,15.73,15.73,0,0,0-4-.55,11.11,11.11,0,0,0-6.23,1.56,4.54,4.54,0,0,0-2.25,4,5.44,5.44,0,0,0,1.08,3.52,7.31,7.31,0,0,0,2.76,2.09,46.5,46.5,0,0,0,4.67,1.66,41,41,0,0,1,5.1,1.8,8.84,8.84,0,0,1,3.34,2.63A7.28,7.28,0,0,1,109,31.46a6.88,6.88,0,0,1-3,5.82A13.06,13.06,0,0,1,98.18,39.41ZM88.3,34.7a13.78,13.78,0,0,0,4.32,2.75,14.44,14.44,0,0,0,5.56,1.14,12.27,12.27,0,0,0,7.35-2,6,6,0,0,0,2.65-5.15,6.5,6.5,0,0,0-1.2-4.11,8,8,0,0,0-3-2.39,39.83,39.83,0,0,0-5-1.76,47.46,47.46,0,0,1-4.77-1.7,8.07,8.07,0,0,1-3.06-2.32,6.2,6.2,0,0,1-1.27-4,5.36,5.36,0,0,1,2.61-4.65,11.85,11.85,0,0,1,6.69-1.7,16.42,16.42,0,0,1,4.26.57,13.47,13.47,0,0,1,3.33,1.35h0a14.37,14.37,0,0,0-3.33-1.37h0a16,16,0,0,0-4.27-.61,11.76,11.76,0,0,0-6.86,1.81,5.32,5.32,0,0,0-2.5,4.6,6.26,6.26,0,0,0,1.19,4,7.83,7.83,0,0,0,3,2.34,45.91,45.91,0,0,0,4.94,1.78A44.93,44.93,0,0,1,103.71,25a8.39,8.39,0,0,1,3.11,2.35,6.33,6.33,0,0,1,1.31,4.15,6.05,6.05,0,0,1-2.77,5.18,12.3,12.3,0,0,1-7.18,1.9,14.6,14.6,0,0,1-5.58-1.13,13.34,13.34,0,0,1-4.28-2.74Z"/><path class="cls-1" d="M130.64,8.94a14,14,0,0,1,3.78,1.63l-.43.71a12.62,12.62,0,0,0-3.58-1.52,16,16,0,0,0-4.15-.56,11.47,11.47,0,0,0-6.46,1.63,5,5,0,0,0-2.43,4.31,5.85,5.85,0,0,0,1.17,3.78,7.66,7.66,0,0,0,2.92,2.2,46.54,46.54,0,0,0,4.71,1.69,39.85,39.85,0,0,1,5,1.77,8.57,8.57,0,0,1,3.19,2.51,6.91,6.91,0,0,1,1.29,4.37A6.47,6.47,0,0,1,132.88,37a12.67,12.67,0,0,1-7.59,2,15,15,0,0,1-5.72-1.16,14.12,14.12,0,0,1-4.75-3.14l.62-.6A12.56,12.56,0,0,0,119.86,37a14.19,14.19,0,0,0,5.43,1.09,11.79,11.79,0,0,0,6.94-1.82,5.63,5.63,0,0,0,2.6-4.84,6,6,0,0,0-1.21-3.89,8,8,0,0,0-3-2.24,47.91,47.91,0,0,0-4.78-1.69,42.08,42.08,0,0,1-5-1.8,8.17,8.17,0,0,1-3.12-2.45,6.68,6.68,0,0,1-1.27-4.25,5.75,5.75,0,0,1,2.68-4.94,12.1,12.1,0,0,1,7.09-1.88A16.36,16.36,0,0,1,130.64,8.94Z"/><path d="M125.29,39.41a15.39,15.39,0,0,1-5.87-1.19,14.6,14.6,0,0,1-4.9-3.24l-.29-.29,1.22-1.18.29.3A12.14,12.14,0,0,0,120,36.65a13.74,13.74,0,0,0,5.27,1.06A11.53,11.53,0,0,0,132,36a5.24,5.24,0,0,0,2.41-4.51,5.56,5.56,0,0,0-1.11-3.63,7.59,7.59,0,0,0-2.82-2.12A42.45,42.45,0,0,0,125.75,24a44.8,44.8,0,0,1-5-1.82,8.81,8.81,0,0,1-3.27-2.58,7,7,0,0,1-1.36-4.5,6.19,6.19,0,0,1,2.85-5.28,12.61,12.61,0,0,1,7.33-1.95,16.79,16.79,0,0,1,4.49.64,14.21,14.21,0,0,1,3.89,1.68l.34.21-.86,1.41-.35-.22a12.19,12.19,0,0,0-3.46-1.47,15.73,15.73,0,0,0-4-.55A11.11,11.11,0,0,0,120,11.17a4.54,4.54,0,0,0-2.25,4,5.44,5.44,0,0,0,1.08,3.52,7.31,7.31,0,0,0,2.76,2.09,46.5,46.5,0,0,0,4.67,1.66,41.61,41.61,0,0,1,5.1,1.8,8.91,8.91,0,0,1,3.34,2.63,7.28,7.28,0,0,1,1.39,4.62,6.88,6.88,0,0,1-3,5.82A13.06,13.06,0,0,1,125.29,39.41ZM115.4,34.7a13.94,13.94,0,0,0,4.33,2.75,14.44,14.44,0,0,0,5.56,1.14,12.22,12.22,0,0,0,7.34-2,6,6,0,0,0,2.66-5.15,6.44,6.44,0,0,0-1.21-4.11,7.93,7.93,0,0,0-3-2.39,39.83,39.83,0,0,0-5-1.76,45.7,45.7,0,0,1-4.77-1.7,8.18,8.18,0,0,1-3.07-2.32,6.26,6.26,0,0,1-1.27-4,5.37,5.37,0,0,1,2.62-4.65,11.85,11.85,0,0,1,6.69-1.7,16.42,16.42,0,0,1,4.26.57,13.47,13.47,0,0,1,3.33,1.35h0a14.37,14.37,0,0,0-3.33-1.37h0a16,16,0,0,0-4.27-.61,11.76,11.76,0,0,0-6.86,1.81,5.32,5.32,0,0,0-2.5,4.6,6.26,6.26,0,0,0,1.19,4,7.83,7.83,0,0,0,3,2.34A45.91,45.91,0,0,0,126,23.25,43.87,43.87,0,0,1,130.81,25a8.34,8.34,0,0,1,3.12,2.35,6.33,6.33,0,0,1,1.31,4.15,6.05,6.05,0,0,1-2.77,5.18,12.3,12.3,0,0,1-7.18,1.9,14.53,14.53,0,0,1-5.58-1.13,13.23,13.23,0,0,1-4.28-2.74Z"/><path class="cls-1" d="M145.44,29.66,141.2,39h-1.07L154.18,8.32h1L169.35,39h-1l-4.28-9.34Zm9.21-20.31-8.8,19.43h17.8Z"/><path d="M170,39.41h-1.91l-4.29-9.34H145.7l-4.24,9.34h-2l14.44-31.5h1.49Zm-1.39-.82h.1L154.88,8.73h-.06l9.47,20.47H145.21l9.27-20.47h0L140.77,38.59h.16l4.24-9.34h19.15ZM146.48,28.37H163l-8.36-18Z"/><path class="cls-1" d="M204.49,39l0-29.84L191,35.62h-.08L177.37,9.16V39h-.88V8.32H178L191,33.73,203.83,8.32h1.54V39Z"/><polyline points="177.28 7.78 178.37 7.78 190.97 32.52 203.49 7.78 204.54 7.78 204.79 7.78 204.99 7.78 205.92 7.78 205.92 39.55 203.94 39.55 203.9 11.44 191.31 36.17 190.55 36.17 177.92 11.44 177.92 39.55 175.94 39.55 175.94 7.78 176.82 7.78"/><path class="cls-1" d="M218.55,9.2V22.76h16.28v.88H218.55V38.12h18.92V39h-19.8V8.32h19.18V9.2Z"/><path d="M237.88,39.41H217.26V7.91h20v1.7H219V22.35h16.29v1.7H219V37.71h18.92Zm-19.8-.82h19v-.05H218.14V23.23h16.28v-.06H218.14V8.79h18.3V8.73H218.08Z"/><path class="cls-1" d="M267.06,24.77a10.07,10.07,0,0,1-5.87,3.35L269.12,39H268l-7.8-10.71c-1.17.12-2.11.17-2.81.17h-9.53V39H247V8.32h10.41c3.72,0,6.59.87,8.64,2.62a9.13,9.13,0,0,1,3.06,7.35A9.93,9.93,0,0,1,267.06,24.77Zm-1.65.39a8.58,8.58,0,0,0,2.83-6.87,8.27,8.27,0,0,0-2.83-6.72c-1.88-1.58-4.55-2.37-8-2.37h-9.53V27.61h9.53C260.86,27.61,263.53,26.79,265.41,25.16Z"/><path d="M269.93,39.41h-2.11L260,28.72c-1.06.1-1.94.15-2.61.15H248.3V39.41h-1.7V7.91h10.82c3.8,0,6.79.91,8.9,2.71a9.58,9.58,0,0,1,3.21,7.67A10.35,10.35,0,0,1,267.38,25h0a10.25,10.25,0,0,1-5.49,3.34Zm-1.69-.82h.07l-7.82-10.74.61-.13a9.76,9.76,0,0,0,5.64-3.21,9.54,9.54,0,0,0,2-6.22,8.77,8.77,0,0,0-2.92-7c-2-1.67-4.77-2.52-8.37-2.52h-10V38.59h.06V28.05h9.94c.69,0,1.62-.06,2.77-.17l.23,0ZM257.42,28h-9.94V8.79h9.94c3.53,0,6.3.83,8.26,2.46a8.73,8.73,0,0,1,3,7,9,9,0,0,1-3,7.18h0C263.73,27.16,261,28,257.42,28Zm-9.12-.83h9.12c3.33,0,5.93-.78,7.72-2.34h0a8.22,8.22,0,0,0,2.69-6.56,7.93,7.93,0,0,0-2.68-6.41c-1.8-1.5-4.4-2.27-7.73-2.27H248.3Z"/><circle class="cls-2" cx="278.34" cy="38.19" r="1.5"/><path class="cls-3" d="M35.93,36.22,32.6,32.89c-.54-.13-3.86-.68-8.54,3.65v5C29.84,36.26,34.16,36,35.93,36.22Z"/><path class="cls-3" d="M10.45,10.73l-2-2C8.6,16,4.3,21.35,2.31,23.47h3C5.79,23,11.1,18,10.45,10.73Z"/><path class="cls-3" d="M18.7,28.41s0,0,0,0A7.71,7.71,0,0,0,16.93,24h-5.4c2.82,3.9,3.32,7,3.39,8.15Z"/><path class="cls-3" d="M24.42,24.71l-.36-.42v5.48a6.25,6.25,0,0,1,3.71-1.71Z"/><path class="cls-3" d="M16.81,23.47l0,0A5.89,5.89,0,0,0,18.69,19L15,15.25a11.92,11.92,0,0,1-3.4,8.22Z"/><path class="cls-3" d="M10.82,23.47c.19-.17,4-3.68,3.6-8.77L11,11.29c.3,6.25-3.64,10.81-5,12.18Z"/><path class="cls-3" d="M32,32.28l-3.67-3.67c-.39-.07-2-.2-4.26,1.85v5.39C27.79,32.53,30.64,32.19,32,32.28Z"/><path class="cls-3" d="M29.77,24.71H25.15l3.08,3.08A4.27,4.27,0,0,1,29.77,24.71Z"/><path class="cls-3" d="M28.75,28.31,32.47,32a11.27,11.27,0,0,1,2.72-7.32H30.4A4.53,4.53,0,0,0,28.75,28.31Z"/><path class="cls-3" d="M33,32.58l3.4,3.4c-.23-5.24,2.68-9.34,4.37-11.27H35.88A10.88,10.88,0,0,0,33,32.58Z"/><path class="cls-3" d="M28.08,19.09a7.77,7.77,0,0,1-4-1.59v5.59Z"/><path class="cls-3" d="M38.8,8.36A27.73,27.73,0,0,1,24.06,2.27v3a20.32,20.32,0,0,0,12.69,5.17Z"/><path class="cls-3" d="M28.56,18.6l3.76-3.76a14.38,14.38,0,0,1-8.26-3.33v5.32a7.28,7.28,0,0,0,4.48,1.77Z"/><path class="cls-3" d="M36.26,10.91a21,21,0,0,1-12.2-5v4.89a14.12,14.12,0,0,0,8.75,3.53Z"/><path class="cls-3" d="M5.93,24c4.34,5.89,5,10.49,5,12.06l3.45-3.41c0-.15.09-3.8-3.53-8.65Z"/><path class="cls-3" d="M15.27,14.83,19,18.58c.42,0,3.08,0,4.52-1.84V11.55C20.87,14.42,16.81,14.79,15.27,14.83Z"/><path class="cls-3" d="M10.8,10.36c.87,0,8.55.07,12.74-5.14v-3a29.94,29.94,0,0,1-14.78,6Z"/><path class="cls-3" d="M11.31,10.87l3.44,3.44c.68,0,5.93,0,8.79-3.54V6C19.63,10.38,13.32,10.84,11.31,10.87Z"/><path class="cls-3" d="M23.17,24H17.56a8.65,8.65,0,0,1,1.62,3.94Z"/><path class="cls-3" d="M37,36.53l2,2c-.06-6.39,3.35-11.32,5.5-13.78h-3C39.87,26.45,36.47,30.85,37,36.53Z"/><path class="cls-3" d="M24.06,42.19v3c6.58-5.81,11.89-6.49,14.51-6.39l-2-1.93C36,36.7,31,35.69,24.06,42.19Z"/><path class="cls-3" d="M23.54,23.1V17.5a6.43,6.43,0,0,1-4,1.58Z"/><path class="cls-3" d="M9.91,33a27.09,27.09,0,0,0-4.62-9H2.2c4.9,6.77,5.92,12.25,6.13,14.67l2.13-2.11A13,13,0,0,0,9.91,33Z"/><path class="cls-3" d="M19.22,19.51a6.31,6.31,0,0,1-1.69,4h5.65Z"/><path class="cls-3" d="M8.62,39.09a26.3,26.3,0,0,1,14.92,6.1v-3a19,19,0,0,0-12.68-5.33Z"/><path class="cls-3" d="M15.37,32.42c3.65.26,7,2.65,8.17,3.53v-5.4a8.68,8.68,0,0,0-4.35-1.91Z"/><path class="cls-3" d="M11.36,36.38a19.48,19.48,0,0,1,12.18,5.14V36.61C23,36.17,19,33,14.87,32.91Z"/><path class="cls-3" d="M23.54,29.9V24.34l-3.88,3.83A9.27,9.27,0,0,1,23.54,29.9Z"/><path d="M47.41,24.47l0-1.73H25.15L41,6.9l-.58-.42A25.86,25.86,0,0,1,24.49,0L23.14,0C16.61,5.86,7.46,6.35,7.37,6.35L6.43,7.43C7.32,16.6.15,23,.08,23L0,24.32c6.37,8.38,6.45,14.9,6.44,15.6l.77.87a1.46,1.46,0,0,0,.22,0c2.44.23,9.74,1,15.7,6.64h1.35c9-8.46,15.14-6.63,15.19-6.61l1.3-1C40.13,30.9,47.34,24.53,47.41,24.47Zm-6.62.24c-1.69,1.93-4.6,6-4.37,11.27L33,32.58a10.88,10.88,0,0,1,2.86-7.87Zm-10.39,0h4.79A11.27,11.27,0,0,0,32.47,32l-3.72-3.72A4.53,4.53,0,0,1,30.4,24.71Zm-.63,0a4.27,4.27,0,0,0-1.54,3.08l-3.08-3.08ZM24.06,2.27A27.73,27.73,0,0,0,38.8,8.36l-2,2.05A20.32,20.32,0,0,1,24.06,5.24Zm0,3.66a21,21,0,0,0,12.2,5l-3.45,3.44a14.12,14.12,0,0,1-8.75-3.53Zm0,5.58a14.38,14.38,0,0,0,8.26,3.33L28.56,18.6h0a7.28,7.28,0,0,1-4.48-1.77Zm0,6a7.77,7.77,0,0,0,4,1.59l-4,4V17.5Zm0,6.79.36.42,3.35,3.35a6.25,6.25,0,0,0-3.71,1.71Zm0,6.17c2.25-2.05,3.87-1.92,4.26-1.85L32,32.28c-1.35-.09-4.2.25-7.93,3.57Zm0,6.08c4.68-4.33,8-3.78,8.54-3.65l3.33,3.33c-1.77-.2-6.09,0-11.87,5.27ZM8.48,8.77l2,2C11.1,18,5.79,23,5.28,23.47h-3C4.3,21.35,8.6,16,8.48,8.77ZM11,11.29l3.42,3.41c.43,5.09-3.41,8.6-3.6,8.77H6C7.36,22.1,11.3,17.54,11,11.29Zm4,4L18.69,19a5.89,5.89,0,0,1-1.86,4.46l0,0H11.56A11.92,11.92,0,0,0,15,15.25ZM11.53,24h5.4a7.71,7.71,0,0,1,1.76,4.39s0,0,0,0l-3.78,3.72C14.85,30.94,14.35,27.88,11.53,24Zm2.89,8.65L11,36c-.08-1.57-.7-6.17-5-12.06h5C14.51,28.83,14.43,32.48,14.42,32.63ZM17.56,24h5.61l-4,3.94A8.65,8.65,0,0,0,17.56,24Zm0-.51a6.31,6.31,0,0,0,1.69-4l4,4ZM2.2,24H5.29a27.09,27.09,0,0,1,4.62,9,13,13,0,0,1,.55,3.57L8.33,38.65C8.12,36.23,7.1,30.75,2.2,24ZM23.54,45.19a26.3,26.3,0,0,0-14.92-6.1l2.24-2.21a19,19,0,0,1,12.68,5.33Zm0-3.67a19.48,19.48,0,0,0-12.18-5.14l3.51-3.47c4.1.08,8.15,3.26,8.67,3.7Zm0-5.57c-1.13-.88-4.52-3.27-8.17-3.53l3.82-3.78a8.68,8.68,0,0,1,4.35,1.91Zm0-6.05a9.27,9.27,0,0,0-3.88-1.73l3.88-3.83Zm0-6.8-4-4a6.43,6.43,0,0,0,4-1.58Zm0-6.36c-1.44,1.81-4.1,1.84-4.52,1.84l-3.75-3.75c1.54,0,5.6-.41,8.27-3.28Zm0-6c-2.86,3.56-8.11,3.56-8.79,3.54l-3.44-3.44c2,0,8.32-.49,12.23-4.85Zm0-5.55c-4.19,5.21-11.87,5.16-12.74,5.14l-2-2.08a29.94,29.94,0,0,0,14.78-6Zm.52,40v-3c7-6.5,11.9-5.49,12.51-5.33l2,1.93C36,38.69,30.64,39.37,24.06,45.18Zm14.87-6.69-2-2c-.5-5.68,2.9-10.08,4.51-11.82h3C42.28,27.17,38.87,32.1,38.93,38.49Z"/></g></g></svg>