<?xml version="1.0" encoding="utf-8"?>
<!-- Generator: Adobe Illustrator 27.2.0, SVG Export Plug-In . SVG Version: 6.00 Build 0)  -->
<svg version="1.1" id="Ebene_1" xmlns="http://www.w3.org/2000/svg" xmlns:xlink="http://www.w3.org/1999/xlink" x="0px" y="0px"
	 viewBox="0 0 3000 746.9" style="enable-background:new 0 0 3000 746.9;" xml:space="preserve">
<style type="text/css">
	.st0{fill:#E71D7B;}
</style>
<g>
	<path d="M982.1,517.8c-6.4,4.2-13,7.5-20,9.8c-12.1,4.1-24.8,6.2-38,6.2c-14.1,0-27.2-2.4-39.2-7.1c-12-4.7-22.4-11.4-31.3-20
		c-8.8-8.6-15.7-18.7-20.5-30.4c-4.8-11.7-7.2-24.2-7.2-37.6c0-13.7,2.4-26.3,7.2-38c4.8-11.7,11.7-21.7,20.5-30.2
		c8.8-8.5,19.3-15.1,31.5-19.8c12.1-4.7,25.3-7.1,39.4-7.1c13.9,0,26.8,2.3,38.7,6.9c11.9,4.6,22.9,11.8,33.1,21.7l21.9-21.9
		c-11.3-12.7-25.1-22.3-41.4-28.6c-16.3-6.4-34.2-9.5-53.7-9.5c-19.3,0-37,3.1-53,9.4c-16,6.2-30,15.1-41.9,26.5
		c-11.9,11.4-21.2,24.8-27.7,40.1c-6.6,15.3-9.9,32.2-9.9,50.5c0,18.4,3.3,35.2,9.9,50.5c6.6,15.3,15.8,28.7,27.6,40.1
		c11.8,11.4,25.7,20.3,41.7,26.5c16,6.2,33.6,9.4,52.7,9.4c17.4,0,34.3-2.7,50.7-8c16.4-5.3,30.7-13.1,42.9-23.5v-96.5h-33.9V517.8z
		"/>
	<path d="M1316.6,388.3c-6.5-15.4-15.6-28.9-27.4-40.3c-11.8-11.4-25.7-20.3-41.7-26.5c-16-6.2-33.5-9.4-52.3-9.4
		c-19.1,0-36.6,3.2-52.7,9.5c-16,6.4-29.9,15.3-41.7,26.7c-11.8,11.4-21,24.8-27.6,40.1c-6.6,15.3-9.9,32.1-9.9,50.2
		c0,18.1,3.3,34.9,9.9,50.2c6.6,15.3,15.8,28.7,27.6,40.1c11.8,11.4,25.7,20.3,41.9,26.7c16.1,6.4,33.6,9.5,52.5,9.5
		c18.9,0,36.3-3.1,52.3-9.4c16-6.2,29.9-15.1,41.7-26.5c11.8-11.4,20.9-24.8,27.4-40.1c6.5-15.3,9.7-32.2,9.7-50.5
		C1326.4,420.6,1323.1,403.8,1316.6,388.3z M1283.8,476.5c-4.8,11.5-11.5,21.6-20.1,30.2c-8.6,8.6-18.7,15.3-30.4,20
		c-11.7,4.7-24.5,7.1-38.4,7.1c-13.7,0-26.3-2.4-38-7.1c-11.7-4.7-21.9-11.4-30.6-20c-8.7-8.6-15.5-18.7-20.3-30.2
		c-4.8-11.5-7.2-24.2-7.2-37.8c0-13.7,2.4-26.2,7.2-37.6c4.8-11.4,11.6-21.5,20.3-30.2c8.7-8.7,18.9-15.4,30.6-20.1
		c11.7-4.7,24.3-7.1,38-7.1c13.9,0,26.7,2.4,38.4,7.1c11.7,4.7,21.8,11.4,30.4,20.1c8.6,8.7,15.3,18.8,20.1,30.2
		c4.8,11.4,7.2,24,7.2,37.6C1291,452.4,1288.6,465,1283.8,476.5z"/>
	<path d="M1540.2,463.1c-5.4-8.2-12.5-14.8-21.4-19.8c-8.8-4.9-18.6-9-29.3-12c-10.7-3.1-21.4-5.8-32-8.3
		c-10.6-2.5-20.3-5.2-29.2-8.3c-8.8-3.1-16-7.2-21.6-12.4c-5.5-5.2-8.3-12.1-8.3-20.9c0-7.3,2.1-13.9,6.2-19.8
		c4.1-5.9,10.7-10.6,19.6-14.1c9-3.5,20.4-5.3,34.3-5.3c11.1,0,22.5,1.6,34.3,4.8c11.8,3.2,23,8.3,33.6,15.4l11.7-28.3
		c-10.4-7.1-22.6-12.5-36.8-16.3c-14.1-3.8-28.4-5.7-42.8-5.7c-21.7,0-39.5,3.2-53.6,9.7c-14,6.5-24.4,15.1-31.1,25.8
		c-6.7,10.7-10.1,22.4-10.1,35.2c0,13.2,2.7,24,8.1,32.3c5.4,8.4,12.5,15,21.4,20c8.8,4.9,18.6,9,29.3,12.2c10.7,3.2,21.4,6,32,8.3
		c10.6,2.4,20.3,5.1,29.2,8.3c8.8,3.2,16,7.4,21.6,12.5c5.5,5.2,8.3,12,8.3,20.5c0,7.3-2.1,13.8-6.4,19.6
		c-4.2,5.8-10.8,10.3-19.8,13.6c-9,3.3-20.6,4.9-35,4.9c-15.8,0-31-2.7-45.6-8.1c-14.6-5.4-26.6-12.3-36.1-20.5l-13.1,27.6
		c9.9,9.2,23.4,16.7,40.7,22.4c17.2,5.8,35.2,8.7,54.1,8.7c21.7,0,39.6-3.2,53.9-9.7c14.3-6.5,24.8-15.1,31.6-25.8
		c6.8-10.7,10.3-22.3,10.3-34.8C1548.4,482,1545.6,471.4,1540.2,463.1z"/>
	<path d="M1759.7,463.1c-5.4-8.2-12.5-14.8-21.4-19.8c-8.8-4.9-18.6-9-29.3-12c-10.7-3.1-21.4-5.8-32-8.3
		c-10.6-2.5-20.3-5.2-29.2-8.3c-8.8-3.1-16-7.2-21.6-12.4c-5.5-5.2-8.3-12.1-8.3-20.9c0-7.3,2.1-13.9,6.2-19.8
		c4.1-5.9,10.7-10.6,19.6-14.1c9-3.5,20.4-5.3,34.3-5.3c11.1,0,22.5,1.6,34.3,4.8c11.8,3.2,23,8.3,33.6,15.4l11.7-28.3
		c-10.4-7.1-22.6-12.5-36.8-16.3c-14.1-3.8-28.4-5.7-42.8-5.7c-21.7,0-39.5,3.2-53.6,9.7c-14,6.5-24.4,15.1-31.1,25.8
		c-6.7,10.7-10.1,22.4-10.1,35.2c0,13.2,2.7,24,8.1,32.3c5.4,8.4,12.5,15,21.4,20c8.8,4.9,18.6,9,29.3,12.2c10.7,3.2,21.4,6,32,8.3
		c10.6,2.4,20.3,5.1,29.2,8.3c8.8,3.2,16,7.4,21.6,12.5c5.5,5.2,8.3,12,8.3,20.5c0,7.3-2.1,13.8-6.4,19.6
		c-4.2,5.8-10.8,10.3-19.8,13.6c-9,3.3-20.6,4.9-35,4.9c-15.8,0-31-2.7-45.6-8.1c-14.6-5.4-26.6-12.3-36.1-20.5l-13.1,27.6
		c9.9,9.2,23.4,16.7,40.7,22.4c17.2,5.8,35.2,8.7,54.1,8.7c21.7,0,39.6-3.2,53.9-9.7c14.3-6.5,24.8-15.1,31.6-25.8
		c6.8-10.7,10.3-22.3,10.3-34.8C1767.9,482,1765.2,471.4,1759.7,463.1z"/>
	<path d="M2004.3,562.4h37.1L1929,315h-35L1782,562.4h36.4l27.2-61.9h131.6L2004.3,562.4z M1858,472.3l53.4-121.4l53.4,121.4H1858z"
		/>
	<polygon points="2341.6,562.4 2341.2,315 2312.2,315 2210.4,488.8 2107.2,315 2078.2,315 2078.2,562.4 2112.2,562.4 2112.2,383.1 
		2201.6,532.4 2217.8,532.4 2307.3,382 2307.6,562.4 	"/>
	<polygon points="2451.1,531.7 2451.1,451.8 2575.2,451.8 2575.2,421.8 2451.1,421.8 2451.1,345.8 2590.4,345.8 2590.4,315 
		2415.8,315 2415.8,562.4 2595.4,562.4 2595.4,531.7 	"/>
	<path d="M2856.6,562.4l-58.7-82.9c2.3-0.8,4.6-1.7,6.8-2.7c15.3-6.8,27.1-16.7,35.3-29.5c8.2-12.8,12.4-28.2,12.4-46.1
		c0-17.9-4.1-33.3-12.4-46.3c-8.3-13-20-22.9-35.3-29.7c-15.3-6.8-33.8-10.3-55.5-10.3h-96.5v247.4h35.3v-75.3h61.2
		c5.4,0,10.7-0.2,15.7-0.6l53.2,75.9H2856.6z M2748.1,457.1H2688V345.8h60.1c22.6,0,39.8,4.8,51.4,14.5c11.7,9.7,17.5,23.3,17.5,41
		c0,17.7-5.8,31.4-17.5,41.2C2787.8,452.2,2770.7,457.1,2748.1,457.1z"/>
	<path class="st0" d="M2967.6,564.6c-6.6,0-12.3-2.3-17-6.9c-4.7-4.6-7.1-10.4-7.1-17.5c0-7.1,2.4-12.8,7.1-17.3
		c4.7-4.5,10.4-6.7,17-6.7c6.4,0,11.8,2.2,16.4,6.7c4.6,4.5,6.9,10.3,6.9,17.3c0,7.1-2.3,12.9-6.9,17.5
		C2979.4,562.3,2973.9,564.6,2967.6,564.6z"/>
</g>
<path class="st0" d="M664.6,549.7l-52.7-30.5V216.6c0-0.1,0-0.3,0-0.4l53.2-30.9c2.8-1.6,3.8-5.3,2.2-8.1c-1.6-2.9-5.3-3.8-8.1-2.2
	l-53,30.8c-0.2-0.1-0.4-0.3-0.7-0.4L342.7,53.7c-0.1-0.1-0.2-0.1-0.3-0.1l-0.1-38.8c0-3.3-2.7-5.9-6-5.9c-3.3,0-6,2.7-6,6l0.1,38.5
	c-0.3,0.1-0.5,0.2-0.8,0.4L68.4,204.5L17.3,175c-2.8-1.6-6.5-0.6-8.1,2.2c-1.6,2.9-0.7,6.5,2.2,8.1L138.7,259v218.2l-66.3,38.5
	V370.9c0-3.3-2.7-6-6-6c-3.3,0-6,2.7-6,6v149c0,0.8,0.1,1.7,0.3,2.5l-48.9,28.4c-2.8,1.6-3.8,5.3-2.2,8.1c1.6,2.9,5.3,3.8,8.1,2.2
	l50.3-29.2l261.5,151c0.9,0.5,1.8,0.9,2.7,1.1l0.1,45.1c0,3.3,2.7,5.9,6,5.9c3.3,0,6-2.7,6-6l-0.1-47.1l261.1-150.7
	c0.6-0.3,1.1-0.7,1.6-1.1l51.7,30c2.8,1.6,6.5,0.6,8.1-2.2C668.4,555,667.4,551.4,664.6,549.7z M599.9,512.3l-66.3-38.4V261.6
	l66.3-38.5V512.3z M239.6,317.4l87.2,50.5l-87.2,50.6V317.4z M331.7,477.2l-85-49l84.7-49.2L331.7,477.2z M247.2,308.1l83.8-48.4
	l0.3,97.1L247.2,308.1z M343.6,475.4l-0.3-97.9l84.8,49.1L343.6,475.4z M343,260.7l84.7,48.7l-84.4,49L343,260.7z M331,219.8
	l-118.2,68.3l-54.4-31.5l172.4-99.6L331,219.8z M212.3,448.2l119.5,69l0.2,63L158,479.7L212.3,448.2z M343.7,515.3l119-68.7
	l54.4,31.5l-173.1,100L343.7,515.3z M467.3,435.5v-56.6c0-9.5-7.8-17.3-17.3-17.3c-9.5,0-17.3,7.8-17.3,17.3v36.6l-82.2-47.6
	l171.2-99.4V467L467.3,435.5z M594.2,212.6L528.1,251L437.9,199c-2.8-1.6-6.3-0.7-8,2h0c-1.8,2.9-0.9,6.7,2.1,8.3l84.3,48.7
	l-54.1,31.4l-119.3-68.6l-0.5-153.4L594.2,212.6z M330.5,66.9l0.2,76.4L146.4,249.7l-66.2-38.3L330.5,66.9z M150.6,265.9l54.5,31.5
	v141.2l-54.5,31.6V265.9z M80,525l66.1-38.4l185.9,107.4l0.2,76.7L80,525z M344.2,668.2l-0.2-76.4L529,485l66.2,38.3L344.2,668.2z"
	/>
</svg>
